<svg width="930" height="297" viewBox="0 0 930 297" fill="none" xmlns="http://www.w3.org/2000/svg">
<rect width="929" height="296" transform="translate(0.5 0.629883)" fill="black"/>
<path fill-rule="evenodd" clip-rule="evenodd" d="M193.5 220.63L96.1345 8.62988H0.5V278.63H58.5001V66.6299L156.5 278.63H256.278L482 278.63V220.63H256.278V220.621H241.5V220.63H193.5ZM241.5 172.621H338.5V172.63H397V114.575H348V114.63H241.5V172.621ZM241.5 66.6299H254.549V66.6297H319V8.63045L241.5 8.6301V66.6299Z" fill="white"/>
<g clip-path="url(#clip0_98_1998)">
<g clip-path="url(#clip1_98_1998)">
<path d="M567.224 65.6299H540.184V9.62988H566.744C576.904 9.62988 584.024 15.3899 584.024 23.7899C584.024 30.1899 579.384 35.1499 572.504 36.8299C580.264 38.0299 585.224 43.3099 585.224 50.4299C585.224 59.3899 577.864 65.6299 567.224 65.6299ZM549.704 18.1899V32.9899H566.424C571.224 32.9899 574.504 29.7899 574.504 25.3099C574.504 21.1499 571.464 18.1899 567.144 18.1899H549.704ZM549.704 41.3099V56.9899H567.704C572.504 56.9899 575.464 53.5499 575.464 49.0699C575.464 44.5099 571.944 41.3099 566.824 41.3099H549.704Z" fill="#090909"/>
<path d="M479.471 65.6299H469.871V9.62988H481.711L499.231 54.1099L516.671 9.62988H528.511V65.6299H518.911V26.1899L503.391 65.6299H494.991L479.471 26.2699V65.6299Z" fill="#090909"/>
<path d="M458.299 65.6299H448.699V9.62988H458.299V65.6299Z" fill="#090909"/>
<path d="M440.219 65.6299H402.059V9.62988H411.659V56.9899H440.219V65.6299Z" fill="#090909"/>
<path d="M365.94 66.8297C348.74 66.8297 337.78 54.9897 337.78 37.4697C337.78 20.5097 348.5 8.42969 365.94 8.42969C380.5 8.42969 390.5 16.9097 392.9 31.2297H383.06C381.3 22.4297 374.82 17.0697 365.94 17.0697C354.66 17.0697 347.62 24.9897 347.62 37.4697C347.62 50.2697 354.66 58.1097 365.94 58.1097C374.98 58.1097 381.3 52.9097 383.06 44.0297H392.9C390.34 58.5897 380.58 66.8297 365.94 66.8297Z" fill="#090909"/>
</g>
<g clip-path="url(#clip2_98_1998)">
<path d="M567.224 65.6299H540.184V9.62988H566.744C576.904 9.62988 584.024 15.3899 584.024 23.7899C584.024 30.1899 579.384 35.1499 572.504 36.8299C580.264 38.0299 585.224 43.3099 585.224 50.4299C585.224 59.3899 577.864 65.6299 567.224 65.6299ZM549.704 18.1899V32.9899H566.424C571.224 32.9899 574.504 29.7899 574.504 25.3099C574.504 21.1499 571.464 18.1899 567.144 18.1899H549.704ZM549.704 41.3099V56.9899H567.704C572.504 56.9899 575.464 53.5499 575.464 49.0699C575.464 44.5099 571.944 41.3099 566.824 41.3099H549.704Z" fill="#2C2C2C"/>
<path d="M479.471 65.6299H469.871V9.62988H481.711L499.231 54.1099L516.671 9.62988H528.511V65.6299H518.911V26.1899L503.391 65.6299H494.991L479.471 26.2699V65.6299Z" fill="#2C2C2C"/>
<path d="M458.299 65.6299H448.699V9.62988H458.299V65.6299Z" fill="#2C2C2C"/>
<path d="M440.219 65.6299H402.059V9.62988H411.659V56.9899H440.219V65.6299Z" fill="#2C2C2C"/>
<path d="M365.94 66.8297C348.74 66.8297 337.78 54.9897 337.78 37.4697C337.78 20.5097 348.5 8.42969 365.94 8.42969C380.5 8.42969 390.5 16.9097 392.9 31.2297H383.06C381.3 22.4297 374.82 17.0697 365.94 17.0697C354.66 17.0697 347.62 24.9897 347.62 37.4697C347.62 50.2697 354.66 58.1097 365.94 58.1097C374.98 58.1097 381.3 52.9097 383.06 44.0297H392.9C390.34 58.5897 380.58 66.8297 365.94 66.8297Z" fill="#2C2C2C"/>
</g>
</g>
<g clip-path="url(#clip3_98_1998)">
<path d="M848.414 277.83H808.494V221.83H847.694V230.47H818.014V244.87H844.894V253.27H818.014V269.19H848.414V277.83Z" fill="#0B0B0B"/>
<path d="M780.456 277.83H770.376L748.616 221.83H758.936L775.416 264.71L791.336 221.83H801.576L780.456 277.83Z" fill="#0B0B0B"/>
<path d="M744.429 277.83H704.509V221.83H743.709V230.47H714.029V244.87H740.909V253.27H714.029V269.19H744.429V277.83Z" fill="#0B0B0B"/>
<path d="M692.937 277.83H683.337V221.83H692.937V277.83Z" fill="#0B0B0B"/>
<path d="M631.453 277.83H621.853V221.83H631.453V244.87H662.173V221.83H671.773V277.83H662.173V253.51H631.453V277.83Z" fill="#0B0B0B"/>
<path d="M585.734 279.03C568.534 279.03 557.574 267.19 557.574 249.67C557.574 232.71 568.294 220.63 585.734 220.63C600.294 220.63 610.294 229.11 612.694 243.43H602.854C601.094 234.63 594.614 229.27 585.734 229.27C574.454 229.27 567.414 237.19 567.414 249.67C567.414 262.47 574.454 270.31 585.734 270.31C594.774 270.31 601.094 265.11 602.854 256.23H612.694C610.134 270.79 600.374 279.03 585.734 279.03Z" fill="#0B0B0B"/>
<path d="M510.42 277.83H500.5L523.38 221.83H532.98L555.94 277.83H546.02L540.34 263.99H516.1L510.42 277.83ZM528.26 234.23L519.54 255.51H536.9L528.26 234.23Z" fill="#0B0B0B"/>
</g>
<g clip-path="url(#clip4_98_1998)">
<path d="M848.414 277.83H808.494V221.83H847.694V230.47H818.014V244.87H844.894V253.27H818.014V269.19H848.414V277.83Z" fill="#2C2C2C"/>
<path d="M780.456 277.83H770.376L748.616 221.83H758.936L775.416 264.71L791.336 221.83H801.576L780.456 277.83Z" fill="#2C2C2C"/>
<path d="M744.429 277.83H704.509V221.83H743.709V230.47H714.029V244.87H740.909V253.27H714.029V269.19H744.429V277.83Z" fill="#2C2C2C"/>
<path d="M692.937 277.83H683.337V221.83H692.937V277.83Z" fill="#2C2C2C"/>
<path d="M631.453 277.83H621.853V221.83H631.453V244.87H662.173V221.83H671.773V277.83H662.173V253.51H631.453V277.83Z" fill="#2C2C2C"/>
<path d="M585.734 279.03C568.534 279.03 557.574 267.19 557.574 249.67C557.574 232.71 568.294 220.63 585.734 220.63C600.294 220.63 610.294 229.11 612.694 243.43H602.854C601.094 234.63 594.614 229.27 585.734 229.27C574.454 229.27 567.414 237.19 567.414 249.67C567.414 262.47 574.454 270.31 585.734 270.31C594.774 270.31 601.094 265.11 602.854 256.23H612.694C610.134 270.79 600.374 279.03 585.734 279.03Z" fill="#2C2C2C"/>
<path d="M510.42 277.83H500.5L523.38 221.83H532.98L555.94 277.83H546.02L540.34 263.99H516.1L510.42 277.83ZM528.26 234.23L519.54 255.51H536.9L528.26 234.23Z" fill="#2C2C2C"/>
</g>
<g clip-path="url(#clip5_98_1998)">
<g clip-path="url(#clip6_98_1998)">
<path d="M619.313 171.63H608.833L592.993 115.63H602.993L614.673 157.63L626.113 115.63H635.073L646.593 157.71L658.273 115.63H668.273L652.433 171.63H641.953L630.593 129.79L619.313 171.63Z" fill="#0A0A0A"/>
<path d="M561.591 172.83C545.031 172.83 533.671 161.31 533.671 143.47C533.671 126.51 544.391 114.43 561.591 114.43C578.231 114.43 589.671 125.87 589.671 143.47C589.671 160.59 578.871 172.83 561.591 172.83ZM561.591 164.11C572.791 164.11 579.911 156.11 579.911 143.47C579.911 130.99 572.791 123.07 561.591 123.07C550.471 123.07 543.431 130.99 543.431 143.47C543.431 156.11 550.471 164.11 561.591 164.11Z" fill="#0A0A0A"/>
<path d="M490.987 171.63H481.387V115.63H508.747C519.387 115.63 526.747 122.11 526.747 131.47C526.747 138.35 521.867 144.03 514.427 145.95C518.107 146.67 520.747 148.91 522.107 152.35L529.307 171.63H519.067L512.587 153.95C511.787 151.71 509.947 150.51 507.387 150.51H490.987V171.63ZM490.987 124.27V142.03H508.267C514.187 142.03 517.227 137.79 517.227 132.91C517.227 127.79 513.707 124.27 508.267 124.27H490.987Z" fill="#0A0A0A"/>
<path d="M442.5 172.83C426.82 172.83 415.78 161.31 415.78 143.47C415.78 126.51 426.5 114.43 443.86 114.43C458.42 114.43 468.42 123.07 470.82 137.23H460.98C459.22 128.43 452.74 123.07 443.86 123.07C432.66 123.07 425.62 130.91 425.62 143.47C425.62 156.19 432.74 164.11 443.46 164.11C452.18 164.11 457.86 158.43 457.86 150.43H440.98V142.35H460.1C467.3 142.35 471.22 145.95 471.22 152.75V171.63H462.74V154.51H462.58C461.46 165.71 454.1 172.83 442.5 172.83Z" fill="#0A0A0A"/>
</g>
<g clip-path="url(#clip7_98_1998)">
<path opacity="0.4" d="M619.033 171.439H608.553L592.713 115.822H602.713L614.393 157.535L625.833 115.822H634.793L646.313 157.614L657.993 115.822H667.993L652.153 171.439H641.673L630.313 129.885L619.033 171.439Z" fill="#0D0D0D"/>
<path opacity="0.4" d="M561.311 172.63C544.751 172.63 533.391 161.189 533.391 143.471C533.391 126.627 544.111 114.63 561.311 114.63C577.951 114.63 589.391 125.992 589.391 143.471C589.391 160.474 578.591 172.63 561.311 172.63ZM561.311 163.97C572.511 163.97 579.631 156.024 579.631 143.471C579.631 131.076 572.511 123.211 561.311 123.211C550.191 123.211 543.151 131.076 543.151 143.471C543.151 156.024 550.191 163.97 561.311 163.97Z" fill="#0D0D0D"/>
<path opacity="0.4" d="M490.707 171.439H481.107V115.822H508.467C519.107 115.822 526.467 122.258 526.467 131.554C526.467 138.387 521.587 144.028 514.147 145.935C517.827 146.65 520.467 148.874 521.827 152.291L529.027 171.439H518.787L512.307 153.88C511.507 151.655 509.667 150.463 507.107 150.463H490.707V171.439ZM490.707 124.403V142.041H507.987C513.907 142.041 516.947 137.83 516.947 132.984C516.947 127.899 513.427 124.403 507.987 124.403H490.707Z" fill="#0D0D0D"/>
<path opacity="0.4" d="M442.22 172.63C426.54 172.63 415.5 161.189 415.5 143.471C415.5 126.627 426.22 114.63 443.58 114.63C458.14 114.63 468.14 123.211 470.54 137.274H460.7C458.94 128.534 452.46 123.211 443.58 123.211C432.38 123.211 425.34 130.997 425.34 143.471C425.34 156.104 432.46 163.97 443.18 163.97C451.9 163.97 457.58 158.329 457.58 150.383H440.7V142.359H459.82C467.02 142.359 470.94 145.934 470.94 152.687V171.438H462.46V154.435H462.3C461.18 165.559 453.82 172.63 442.22 172.63Z" fill="#0D0D0D"/>
</g>
<g clip-path="url(#clip8_98_1998)">
<path d="M619.033 171.439H608.553L592.713 115.822H602.713L614.393 157.535L625.833 115.822H634.793L646.313 157.614L657.993 115.822H667.993L652.153 171.439H641.673L630.313 129.885L619.033 171.439Z" fill="#2C2C2C"/>
<path d="M561.311 172.63C544.751 172.63 533.391 161.189 533.391 143.471C533.391 126.627 544.111 114.63 561.311 114.63C577.951 114.63 589.391 125.992 589.391 143.471C589.391 160.474 578.591 172.63 561.311 172.63ZM561.311 163.97C572.511 163.97 579.631 156.024 579.631 143.471C579.631 131.076 572.511 123.211 561.311 123.211C550.191 123.211 543.151 131.076 543.151 143.471C543.151 156.024 550.191 163.97 561.311 163.97Z" fill="#2C2C2C"/>
<path d="M490.707 171.439H481.107V115.822H508.467C519.107 115.822 526.467 122.258 526.467 131.554C526.467 138.387 521.587 144.028 514.147 145.935C517.827 146.65 520.467 148.874 521.827 152.291L529.027 171.439H518.787L512.307 153.88C511.507 151.655 509.667 150.463 507.107 150.463H490.707V171.439ZM490.707 124.403V142.041H507.987C513.907 142.041 516.947 137.83 516.947 132.984C516.947 127.899 513.427 124.403 507.987 124.403H490.707Z" fill="#2C2C2C"/>
<path d="M442.22 172.63C426.54 172.63 415.5 161.189 415.5 143.471C415.5 126.627 426.22 114.63 443.58 114.63C458.14 114.63 468.14 123.211 470.54 137.274H460.7C458.94 128.534 452.46 123.211 443.58 123.211C432.38 123.211 425.34 130.997 425.34 143.471C425.34 156.104 432.46 163.97 443.18 163.97C451.9 163.97 457.58 158.329 457.58 150.383H440.7V142.359H459.82C467.02 142.359 470.94 145.934 470.94 152.687V171.438H462.46V154.435H462.3C461.18 165.559 453.82 172.63 442.22 172.63Z" fill="#2C2C2C"/>
</g>
</g>
<defs>
<clipPath id="clip0_98_1998">
<rect width="511" height="58" fill="white" transform="translate(337.5 8.62988)"/>
</clipPath>
<clipPath id="clip1_98_1998">
<rect width="247.444" height="58.4" fill="white" transform="translate(337.78 8.42969)"/>
</clipPath>
<clipPath id="clip2_98_1998">
<rect width="248" height="58" fill="white" transform="translate(337.5 8.62988)"/>
</clipPath>
<clipPath id="clip3_98_1998">
<rect width="347.914" height="58.4" fill="white" transform="translate(500.5 220.63)"/>
</clipPath>
<clipPath id="clip4_98_1998">
<rect width="359" height="58" fill="white" transform="translate(496.5 220.63)"/>
</clipPath>
<clipPath id="clip5_98_1998">
<rect width="433" height="58" fill="white" transform="translate(415.5 114.63)"/>
</clipPath>
<clipPath id="clip6_98_1998">
<rect width="252.493" height="58" fill="white" transform="translate(415.5 114.63)"/>
</clipPath>
<clipPath id="clip7_98_1998">
<rect width="252.493" height="58" fill="white" transform="translate(415.5 114.63)"/>
</clipPath>
<clipPath id="clip8_98_1998">
<rect width="264" height="58" fill="white" transform="translate(412.5 114.63)"/>
</clipPath>
</defs>
</svg>
