<svg width="929" height="296" viewBox="0 0 929 296" fill="none" xmlns="http://www.w3.org/2000/svg">
<rect width="929" height="296" fill="black"/>
<path fill-rule="evenodd" clip-rule="evenodd" d="M193 220L95.6345 8H0V278H58.0001V66L156 278H255.778L481.5 278V220H255.778V219.991H241V220H193ZM241 171.991H338V172H396.5V113.945H347.5V114H241V171.991ZM241 66H254.049V65.9998H318.5V8.00057L241 8.00022V66Z" fill="white"/>
<g clip-path="url(#clip0_84_1502)">
<g clip-path="url(#clip1_84_1502)">
<path d="M566.724 65H539.684V9H566.244C576.404 9 583.524 14.76 583.524 23.16C583.524 29.56 578.884 34.52 572.004 36.2C579.764 37.4 584.724 42.68 584.724 49.8C584.724 58.76 577.364 65 566.724 65ZM549.204 17.56V32.36H565.924C570.724 32.36 574.004 29.16 574.004 24.68C574.004 20.52 570.964 17.56 566.644 17.56H549.204ZM549.204 40.68V56.36H567.204C572.004 56.36 574.964 52.92 574.964 48.44C574.964 43.88 571.444 40.68 566.324 40.68H549.204Z" fill="#090909"/>
<path d="M478.971 65H469.371V9H481.211L498.731 53.48L516.171 9H528.011V65H518.411V25.56L502.891 65H494.491L478.971 25.64V65Z" fill="#090909"/>
<path d="M457.799 65H448.199V9H457.799V65Z" fill="#090909"/>
<path d="M439.719 65H401.559V9H411.159V56.36H439.719V65Z" fill="#090909"/>
<path d="M365.44 66.1998C348.24 66.1998 337.28 54.3598 337.28 36.8398C337.28 19.8798 348 7.7998 365.44 7.7998C380 7.7998 390 16.2798 392.4 30.5998H382.56C380.8 21.7998 374.32 16.4398 365.44 16.4398C354.16 16.4398 347.12 24.3598 347.12 36.8398C347.12 49.6398 354.16 57.4798 365.44 57.4798C374.48 57.4798 380.8 52.2798 382.56 43.3998H392.4C389.84 57.9598 380.08 66.1998 365.44 66.1998Z" fill="#090909"/>
</g>
<g clip-path="url(#clip2_84_1502)">
<path d="M566.724 65H539.684V9H566.244C576.404 9 583.524 14.76 583.524 23.16C583.524 29.56 578.884 34.52 572.004 36.2C579.764 37.4 584.724 42.68 584.724 49.8C584.724 58.76 577.364 65 566.724 65ZM549.204 17.56V32.36H565.924C570.724 32.36 574.004 29.16 574.004 24.68C574.004 20.52 570.964 17.56 566.644 17.56H549.204ZM549.204 40.68V56.36H567.204C572.004 56.36 574.964 52.92 574.964 48.44C574.964 43.88 571.444 40.68 566.324 40.68H549.204Z" fill="#2C2C2C"/>
<path d="M478.971 65H469.371V9H481.211L498.731 53.48L516.171 9H528.011V65H518.411V25.56L502.891 65H494.491L478.971 25.64V65Z" fill="#2C2C2C"/>
<path d="M457.799 65H448.199V9H457.799V65Z" fill="#2C2C2C"/>
<path d="M439.719 65H401.559V9H411.159V56.36H439.719V65Z" fill="#2C2C2C"/>
<path d="M365.44 66.1998C348.24 66.1998 337.28 54.3598 337.28 36.8398C337.28 19.8798 348 7.7998 365.44 7.7998C380 7.7998 390 16.2798 392.4 30.5998H382.56C380.8 21.7998 374.32 16.4398 365.44 16.4398C354.16 16.4398 347.12 24.3598 347.12 36.8398C347.12 49.6398 354.16 57.4798 365.44 57.4798C374.48 57.4798 380.8 52.2798 382.56 43.3998H392.4C389.84 57.9598 380.08 66.1998 365.44 66.1998Z" fill="#2C2C2C"/>
</g>
</g>
<g clip-path="url(#clip3_84_1502)">
<path d="M847.914 277.2H807.994V221.2H847.194V229.84H817.514V244.24H844.394V252.64H817.514V268.56H847.914V277.2Z" fill="#0B0B0B"/>
<path d="M779.956 277.2H769.876L748.116 221.2H758.436L774.916 264.08L790.836 221.2H801.076L779.956 277.2Z" fill="#0B0B0B"/>
<path d="M743.929 277.2H704.009V221.2H743.209V229.84H713.529V244.24H740.409V252.64H713.529V268.56H743.929V277.2Z" fill="#0B0B0B"/>
<path d="M692.437 277.2H682.837V221.2H692.437V277.2Z" fill="#0B0B0B"/>
<path d="M630.953 277.2H621.353V221.2H630.953V244.24H661.673V221.2H671.273V277.2H661.673V252.88H630.953V277.2Z" fill="#0B0B0B"/>
<path d="M585.234 278.4C568.034 278.4 557.074 266.56 557.074 249.04C557.074 232.08 567.794 220 585.234 220C599.794 220 609.794 228.48 612.194 242.8H602.354C600.594 234 594.114 228.64 585.234 228.64C573.954 228.64 566.914 236.56 566.914 249.04C566.914 261.84 573.954 269.68 585.234 269.68C594.274 269.68 600.594 264.48 602.354 255.6H612.194C609.634 270.16 599.874 278.4 585.234 278.4Z" fill="#0B0B0B"/>
<path d="M509.92 277.2H500L522.88 221.2H532.48L555.44 277.2H545.52L539.84 263.36H515.6L509.92 277.2ZM527.76 233.6L519.04 254.88H536.4L527.76 233.6Z" fill="#0B0B0B"/>
</g>
<g clip-path="url(#clip4_84_1502)">
<path d="M847.914 277.2H807.994V221.2H847.194V229.84H817.514V244.24H844.394V252.64H817.514V268.56H847.914V277.2Z" fill="#2C2C2C"/>
<path d="M779.956 277.2H769.876L748.116 221.2H758.436L774.916 264.08L790.836 221.2H801.076L779.956 277.2Z" fill="#2C2C2C"/>
<path d="M743.929 277.2H704.009V221.2H743.209V229.84H713.529V244.24H740.409V252.64H713.529V268.56H743.929V277.2Z" fill="#2C2C2C"/>
<path d="M692.437 277.2H682.837V221.2H692.437V277.2Z" fill="#2C2C2C"/>
<path d="M630.953 277.2H621.353V221.2H630.953V244.24H661.673V221.2H671.273V277.2H661.673V252.88H630.953V277.2Z" fill="#2C2C2C"/>
<path d="M585.234 278.4C568.034 278.4 557.074 266.56 557.074 249.04C557.074 232.08 567.794 220 585.234 220C599.794 220 609.794 228.48 612.194 242.8H602.354C600.594 234 594.114 228.64 585.234 228.64C573.954 228.64 566.914 236.56 566.914 249.04C566.914 261.84 573.954 269.68 585.234 269.68C594.274 269.68 600.594 264.48 602.354 255.6H612.194C609.634 270.16 599.874 278.4 585.234 278.4Z" fill="#2C2C2C"/>
<path d="M509.92 277.2H500L522.88 221.2H532.48L555.44 277.2H545.52L539.84 263.36H515.6L509.92 277.2ZM527.76 233.6L519.04 254.88H536.4L527.76 233.6Z" fill="#2C2C2C"/>
</g>
<g clip-path="url(#clip5_84_1502)">
<g clip-path="url(#clip6_84_1502)">
<path d="M618.813 171H608.333L592.493 115H602.493L614.173 157L625.613 115H634.573L646.093 157.08L657.773 115H667.773L651.933 171H641.453L630.093 129.16L618.813 171Z" fill="#0A0A0A"/>
<path d="M561.091 172.2C544.531 172.2 533.171 160.68 533.171 142.84C533.171 125.88 543.891 113.8 561.091 113.8C577.731 113.8 589.171 125.24 589.171 142.84C589.171 159.96 578.371 172.2 561.091 172.2ZM561.091 163.48C572.291 163.48 579.411 155.48 579.411 142.84C579.411 130.36 572.291 122.44 561.091 122.44C549.971 122.44 542.931 130.36 542.931 142.84C542.931 155.48 549.971 163.48 561.091 163.48Z" fill="#0A0A0A"/>
<path d="M490.487 171H480.887V115H508.247C518.887 115 526.247 121.48 526.247 130.84C526.247 137.72 521.367 143.4 513.927 145.32C517.607 146.04 520.247 148.28 521.607 151.72L528.807 171H518.567L512.087 153.32C511.287 151.08 509.447 149.88 506.887 149.88H490.487V171ZM490.487 123.64V141.4H507.767C513.687 141.4 516.727 137.16 516.727 132.28C516.727 127.16 513.207 123.64 507.767 123.64H490.487Z" fill="#0A0A0A"/>
<path d="M442 172.2C426.32 172.2 415.28 160.68 415.28 142.84C415.28 125.88 426 113.8 443.36 113.8C457.92 113.8 467.92 122.44 470.32 136.6H460.48C458.72 127.8 452.24 122.44 443.36 122.44C432.16 122.44 425.12 130.28 425.12 142.84C425.12 155.56 432.24 163.48 442.96 163.48C451.68 163.48 457.36 157.8 457.36 149.8H440.48V141.72H459.6C466.8 141.72 470.72 145.32 470.72 152.12V171H462.24V153.88H462.08C460.96 165.08 453.6 172.2 442 172.2Z" fill="#0A0A0A"/>
</g>
<g clip-path="url(#clip7_84_1502)">
<path opacity="0.4" d="M618.533 170.809H608.053L592.213 115.192H602.213L613.893 156.905L625.333 115.192H634.293L645.813 156.984L657.493 115.192H667.493L651.653 170.809H641.173L629.813 129.255L618.533 170.809Z" fill="#0D0D0D"/>
<path opacity="0.4" d="M560.811 172C544.251 172 532.891 160.559 532.891 142.841C532.891 125.997 543.611 114 560.811 114C577.451 114 588.891 125.362 588.891 142.841C588.891 159.844 578.091 172 560.811 172ZM560.811 163.34C572.011 163.34 579.131 155.395 579.131 142.841C579.131 130.447 572.011 122.581 560.811 122.581C549.691 122.581 542.651 130.447 542.651 142.841C542.651 155.395 549.691 163.34 560.811 163.34Z" fill="#0D0D0D"/>
<path opacity="0.4" d="M490.207 170.809H480.607V115.192H507.967C518.607 115.192 525.967 121.628 525.967 130.924C525.967 137.757 521.087 143.398 513.647 145.305C517.327 146.02 519.967 148.244 521.327 151.661L528.527 170.809H518.287L511.807 153.25C511.007 151.025 509.167 149.833 506.607 149.833H490.207V170.809ZM490.207 123.773V141.412H507.487C513.407 141.412 516.447 137.201 516.447 132.354C516.447 127.269 512.927 123.773 507.487 123.773H490.207Z" fill="#0D0D0D"/>
<path opacity="0.4" d="M441.72 172C426.04 172 415 160.559 415 142.841C415 125.997 425.72 114 443.08 114C457.64 114 467.64 122.581 470.04 136.644H460.2C458.44 127.904 451.96 122.581 443.08 122.581C431.88 122.581 424.84 130.367 424.84 142.841C424.84 155.474 431.96 163.34 442.68 163.34C451.4 163.34 457.08 157.699 457.08 149.753H440.2V141.729H459.32C466.52 141.729 470.44 145.304 470.44 152.058V170.808H461.96V153.805H461.8C460.68 164.929 453.32 172 441.72 172Z" fill="#0D0D0D"/>
</g>
<path d="M618.533 170.809H608.053L592.213 115.192H602.213L613.893 156.905L625.333 115.192H634.293L645.813 156.984L657.493 115.192H667.493L651.653 170.809H641.173L629.813 129.255L618.533 170.809Z" fill="#2C2C2C"/>
<path d="M560.811 172C544.251 172 532.891 160.559 532.891 142.841C532.891 125.997 543.611 114 560.811 114C577.451 114 588.891 125.362 588.891 142.841C588.891 159.844 578.091 172 560.811 172ZM560.811 163.34C572.011 163.34 579.131 155.395 579.131 142.841C579.131 130.447 572.011 122.581 560.811 122.581C549.691 122.581 542.651 130.447 542.651 142.841C542.651 155.395 549.691 163.34 560.811 163.34Z" fill="#2C2C2C"/>
<path d="M490.207 170.809H480.607V115.192H507.967C518.607 115.192 525.967 121.628 525.967 130.924C525.967 137.757 521.087 143.398 513.647 145.305C517.327 146.02 519.967 148.244 521.327 151.661L528.527 170.809H518.287L511.807 153.25C511.007 151.025 509.167 149.833 506.607 149.833H490.207V170.809ZM490.207 123.773V141.412H507.487C513.407 141.412 516.447 137.201 516.447 132.354C516.447 127.269 512.927 123.773 507.487 123.773H490.207Z" fill="#2C2C2C"/>
<path d="M441.72 172C426.04 172 415 160.559 415 142.841C415 125.997 425.72 114 443.08 114C457.64 114 467.64 122.581 470.04 136.644H460.2C458.44 127.904 451.96 122.581 443.08 122.581C431.88 122.581 424.84 130.367 424.84 142.841C424.84 155.474 431.96 163.34 442.68 163.34C451.4 163.34 457.08 157.699 457.08 149.753H440.2V141.729H459.32C466.52 141.729 470.44 145.304 470.44 152.058V170.808H461.96V153.805H461.8C460.68 164.929 453.32 172 441.72 172Z" fill="#2C2C2C"/>
</g>
<defs>
<clipPath id="clip0_84_1502">
<rect width="511" height="58" fill="white" transform="translate(337 8)"/>
</clipPath>
<clipPath id="clip1_84_1502">
<rect width="247.444" height="58.4" fill="white" transform="translate(337.28 7.7998)"/>
</clipPath>
<clipPath id="clip2_84_1502">
<rect width="248" height="58" fill="white" transform="translate(337 8)"/>
</clipPath>
<clipPath id="clip3_84_1502">
<rect width="347.914" height="58.4" fill="white" transform="translate(500 220)"/>
</clipPath>
<clipPath id="clip4_84_1502">
<rect width="359" height="58" fill="white" transform="translate(496 220)"/>
</clipPath>
<clipPath id="clip5_84_1502">
<rect width="433" height="58" fill="white" transform="translate(415 114)"/>
</clipPath>
<clipPath id="clip6_84_1502">
<rect width="252.493" height="58" fill="white" transform="translate(415 114)"/>
</clipPath>
<clipPath id="clip7_84_1502">
<rect width="252.493" height="58" fill="white" transform="translate(415 114)"/>
</clipPath>
</defs>
</svg>
