<?xml version="1.0" standalone="no"?>
<!DOCTYPE svg PUBLIC "-//W3C//DTD SVG 20010904//EN"
 "http://www.w3.org/TR/2001/REC-SVG-20010904/DTD/svg10.dtd">
<svg version="1.0" xmlns="http://www.w3.org/2000/svg"
 width="1008.000000pt" height="1008.000000pt" viewBox="0 0 1008.000000 1008.000000"
 preserveAspectRatio="xMidYMid meet">
<metadata>
Created by potrace 1.14, written by Peter Selinger 2001-2017
</metadata>
<g transform="translate(0.000000,1008.000000) scale(0.100000,-0.100000)"
fill="#000000" stroke="none">
<path d="M0 5040 l0 -2800 602 2 602 3 0 2192 c0 1206 1 2191 2 2190 2 -1 35
-72 74 -157 124 -268 186 -401 228 -490 14 -30 26 -57 27 -60 1 -3 13 -30 27
-60 52 -111 88 -190 88 -195 0 -3 13 -31 29 -62 28 -55 72 -149 121 -258 25
-55 62 -136 139 -299 28 -59 51 -110 51 -111 0 -2 23 -52 51 -112 64 -136 102
-217 104 -223 4 -12 46 -103 94 -202 28 -60 51 -110 51 -112 0 -2 27 -61 60
-130 33 -70 60 -128 60 -130 0 -2 24 -55 54 -117 29 -63 63 -134 74 -159 11
-25 39 -85 62 -135 23 -49 64 -139 92 -200 28 -60 54 -114 58 -120 4 -5 11
-21 15 -33 4 -13 33 -78 65 -145 32 -67 82 -176 113 -242 30 -66 69 -151 87
-190 18 -38 47 -101 64 -140 18 -38 57 -123 87 -187 l54 -118 3375 0 3376 0 0
602 -1 602 -2989 0 -2989 1 -16 30 c-9 17 -28 55 -41 85 -14 30 -29 58 -33 61
-5 3 -8 8 -7 10 2 7 -18 56 -61 147 -23 48 -57 123 -76 167 -20 44 -39 85 -44
91 -5 6 -6 14 -2 17 3 4 1 7 -5 7 -7 0 -12 6 -12 13 0 8 -15 45 -33 83 -19 38
-42 87 -52 109 -10 22 -30 67 -46 100 -51 113 -101 220 -116 255 -22 47 -77
168 -120 260 -92 199 -127 274 -128 280 -1 3 -13 30 -27 60 -41 87 -99 214
-169 365 -35 77 -67 143 -72 146 -5 3 -8 8 -7 10 2 7 -11 41 -45 114 -18 39
-45 97 -60 130 -15 33 -40 89 -57 123 -16 35 -38 83 -48 105 -10 23 -33 76
-53 117 -19 41 -45 98 -57 125 -13 28 -43 93 -67 145 -42 89 -64 138 -68 150
-1 3 -14 32 -30 65 -15 33 -43 92 -61 130 -17 39 -45 97 -60 130 -15 33 -28
62 -29 65 -2 6 -43 95 -90 195 -18 39 -42 90 -53 115 -11 25 -36 80 -56 123
-19 42 -35 80 -36 82 0 3 -13 31 -29 62 -16 32 -35 73 -42 91 l-14 32 -992 0
-993 0 0 -2800z"/>
<path d="M4999 7823 c0 -10 -1 -278 -1 -597 0 -390 3 -580 10 -585 5 -3 367
-6 804 -5 l793 0 0 602 1 602 -803 0 c-758 0 -803 -1 -804 -17z"/>
<path d="M5036 5640 l-39 -5 -1 -597 -1 -598 55 -1 c395 -4 3163 1 3168 5 11
11 8 1196 -3 1197 -44 4 -3149 3 -3179 -1z"/>
</g>
</svg>
